<svg xmlns="http://www.w3.org/2000/svg"
    xmlns:xlink="http://www.w3.org/1999/xlink" viewBox="0 0 7985.28 622.76">
    <defs>
        <style>.a{isolation:isolate;}</style>
    </defs>
    <image class="a" width="546" height="809" transform="translate(0 33.9) scale(0.73)" xlink:href="people1.png"/>
    <image class="a" width="340" height="336" transform="translate(518.26 124.16) scale(0.73)" xlink:href="people2.png"/>
    <image class="a" width="363" height="266" transform="translate(1889.59 146.73) scale(0.73)" xlink:href="people3.png"/>
    <image class="a" width="453" height="829" transform="translate(1420.83 19.35) scale(0.73)" xlink:href="people4.png"/>
    <image class="a" width="514" height="829" transform="translate(2926.83 19.35) scale(0.73)" xlink:href="people5.png"/>
    <image class="a" width="218" height="251" transform="translate(3265.3 17.89) scale(0.73)" xlink:href="people6.png"/>
    <image class="a" width="151" height="355" transform="translate(3506.23 127.8) scale(0.73)" xlink:href="people7.png"/>
    <image class="a" width="236" height="402" transform="translate(3332.26 242.08) scale(0.73)" xlink:href="people8.png"/>
    <image class="a" width="755" height="832" transform="translate(4310.18 17.56) scale(0.73)" xlink:href="people9.png"/>
    <image class="a" width="183" height="234" transform="translate(4615.17 0.16) scale(0.72)" xlink:href="people10.png"/>
    <image class="a" width="327" height="361" transform="translate(4598.42 252.67) scale(0.73)" xlink:href="people11.png"/>
    <image class="a" width="174" height="295" transform="translate(4925.24 276.91) scale(0.72)" xlink:href="people12.png"/>
    <image class="a" width="528" height="446" transform="translate(4784.76) scale(0.73)" xlink:href="people13.png"/>
    <image class="a" width="1273" height="798" transform="translate(5495.91 42.14) scale(0.73)" xlink:href="people14.png"/>
    <image class="a" width="428" height="325" transform="translate(6096.41 128.8) scale(0.73)" xlink:href="people15.png"/>
    <image class="a" width="1314" height="830" transform="translate(7029.57 18.85) scale(0.73)" xlink:href="people16.png"/>
    <image class="a" width="249" height="345" transform="translate(7443 14.75) scale(0.72)" xlink:href="people17.png"/>
    <image class="a" width="342" height="409" transform="translate(7616.97 211.94) scale(0.73)" xlink:href="people18.png"/>
</svg>